<?xml version="1.0" standalone="no"?>
<!DOCTYPE svg PUBLIC "-//W3C//DTD SVG 20010904//EN"
 "http://www.w3.org/TR/2001/REC-SVG-20010904/DTD/svg10.dtd">
<svg version="1.0" xmlns="http://www.w3.org/2000/svg"
 width="1024.000000pt" height="1024.000000pt" viewBox="0 0 1024.000000 1024.000000"
 preserveAspectRatio="xMidYMid meet">

<g transform="translate(0.000000,1024.000000) scale(0.100000,-0.100000)"
fill="#000000" stroke="none">
<path d="M4638 8755 c-649 -49 -1153 -148 -1729 -339 -437 -145 -770 -299
-1079 -501 -115 -75 -166 -111 -335 -239 -303 -231 -645 -637 -829 -986 -192
-366 -316 -803 -341 -1205 -13 -222 -14 -293 -6 -440 40 -670 279 -1298 692
-1815 106 -133 322 -355 464 -477 675 -582 1711 -995 2792 -1113 1034 -112
2035 -24 2904 256 731 236 1314 570 1750 1004 225 225 382 422 531 670 227
376 357 727 435 1170 26 148 28 169 28 490 -1 300 -3 349 -23 470 -73 440
-204 785 -433 1148 -180 284 -475 611 -754 835 -201 161 -538 373 -759 477
-672 315 -1243 476 -2021 569 -304 37 -971 50 -1287 26z m1120 -164 c779 -75
1451 -255 2102 -563 598 -284 1134 -747 1467 -1266 284 -444 424 -904 440
-1442 15 -522 -91 -990 -330 -1466 -260 -517 -707 -988 -1247 -1314 -251 -152
-666 -342 -955 -438 -890 -296 -1924 -402 -2885 -296 -515 56 -935 151 -1425
321 -864 301 -1525 785 -1962 1438 -227 340 -394 774 -463 1210 -39 239 -38
679 1 925 101 638 401 1216 855 1649 322 307 730 574 1162 761 483 208 1069
366 1647 444 128 17 524 54 640 60 207 9 747 -4 953 -23z"/>
<path d="M4825 8509 c-935 -33 -1885 -264 -2573 -625 -400 -210 -763 -491
-1021 -790 -364 -421 -583 -915 -656 -1485 -22 -167 -27 -537 -9 -699 46 -429
185 -838 408 -1209 211 -350 525 -679 897 -943 724 -513 1713 -825 2819 -888
1418 -80 2789 251 3690 893 592 422 1013 1009 1195 1666 229 828 107 1650
-345 2329 -493 740 -1261 1235 -2405 1547 -306 84 -643 142 -1035 179 -135 13
-719 38 -760 33 -8 -1 -100 -5 -205 -8z m710 -159 c873 -51 1628 -237 2290
-565 362 -179 625 -365 896 -635 243 -241 410 -471 554 -765 120 -243 199
-497 241 -770 26 -168 27 -599 1 -765 -131 -846 -589 -1544 -1342 -2045 -610
-406 -1439 -669 -2435 -771 -242 -25 -839 -30 -1130 -10 -865 61 -1693 293
-2330 654 -722 409 -1259 1041 -1463 1722 -93 307 -121 500 -121 840 -1 282 7
357 61 615 149 719 629 1350 1364 1796 627 379 1567 641 2513 698 193 12 706
12 901 1z"/>
<path d="M4260 7853 c-422 -69 -567 -96 -575 -104 -7 -7 3 -21 31 -44 23 -19
46 -47 52 -62 7 -16 36 -199 67 -408 30 -209 57 -391 59 -404 6 -35 -11 -86
-39 -120 -52 -61 -54 -61 275 -16 96 13 217 29 268 36 54 7 96 17 98 24 3 7
-2 52 -10 101 -8 49 -18 113 -21 142 -6 45 -10 52 -29 52 -19 0 -28 -12 -50
-64 -43 -102 -79 -125 -217 -141 l-57 -7 -10 59 c-21 123 -45 293 -41 297 2 2
38 7 80 11 l77 7 40 -36 c25 -23 45 -34 56 -30 9 3 16 10 16 15 0 15 -30 233
-35 257 -8 34 -39 27 -68 -16 -29 -44 -84 -66 -152 -60 -45 3 -43 -3 -70 182
-9 59 -19 114 -22 121 -7 19 57 35 137 35 83 0 143 -28 185 -87 16 -23 38 -42
49 -42 16 -1 17 4 12 32 -4 17 -13 77 -22 132 -24 161 -17 149 -84 138z"/>
<path d="M4678 7853 c-57 -5 -60 -17 -18 -58 17 -16 35 -45 40 -64 14 -51 13
-805 -1 -856 -6 -22 -26 -54 -46 -72 -19 -18 -31 -37 -28 -43 4 -6 73 -10 176
-10 142 0 169 2 169 15 0 8 -11 22 -24 30 -51 34 -56 69 -56 398 l0 302 124
-241 c197 -386 247 -475 274 -485 29 -11 89 -12 96 -1 3 5 12 112 20 238 29
419 54 696 66 731 6 16 30 45 53 65 23 20 38 40 34 45 -14 13 -347 17 -347 3
0 -6 16 -27 37 -46 l36 -34 -6 -173 c-9 -232 -19 -367 -26 -366 -3 0 -76 141
-161 312 l-155 312 -105 1 c-58 0 -126 -1 -152 -3z"/>
<path d="M6070 7826 c0 -7 7 -19 16 -27 28 -23 45 -70 45 -122 0 -52 -98 -649
-125 -761 -17 -70 -40 -104 -89 -131 -36 -20 -46 -38 -28 -50 27 -16 409 -85
474 -85 124 1 237 60 315 165 88 118 140 273 149 440 12 236 -86 401 -282 474
-58 22 -427 111 -459 111 -9 0 -16 -6 -16 -14z m373 -212 c55 -19 117 -83 136
-141 53 -160 -8 -491 -112 -609 -63 -71 -116 -87 -213 -63 l-46 12 7 46 c18
133 140 745 151 763 7 12 25 10 77 -8z"/>
<path d="M7108 7598 c-2 -6 4 -27 14 -47 10 -19 18 -52 18 -72 0 -47 -218
-698 -265 -790 -23 -46 -65 -89 -86 -89 -21 0 -45 -28 -33 -39 5 -5 90 -35
189 -66 99 -31 242 -76 317 -101 75 -24 139 -44 142 -44 8 0 96 281 96 307 0
35 -21 28 -70 -23 -78 -79 -120 -91 -224 -64 -39 10 -83 23 -98 29 l-27 10 55
157 c30 86 57 161 60 165 7 12 104 -26 126 -49 10 -10 26 -34 36 -53 9 -19 23
-34 30 -34 9 0 31 52 59 143 53 166 51 183 -20 132 l-45 -32 -63 17 c-35 8
-67 19 -70 23 -5 5 40 137 94 277 4 11 121 -30 162 -58 45 -30 62 -56 85 -124
12 -34 27 -64 34 -66 10 -4 25 32 55 122 22 71 41 135 41 144 0 8 -12 20 -27
25 -16 6 -151 55 -301 111 -151 56 -275 101 -277 101 -2 0 -5 -5 -7 -12z"/>
<path d="M3068 7570 c-53 -9 -273 -69 -390 -106 -80 -25 -99 -46 -54 -58 32
-8 83 -51 100 -85 25 -49 220 -685 236 -773 9 -47 8 -54 -15 -84 -29 -38 -32
-54 -7 -54 27 0 324 88 335 99 6 6 -4 16 -30 29 -29 15 -44 33 -60 69 -34 75
-107 312 -99 320 15 15 84 8 105 -11 11 -10 56 -76 101 -146 97 -154 147 -205
194 -196 123 23 226 51 223 60 -2 6 -21 21 -42 33 -26 15 -62 56 -117 135 -98
139 -139 183 -196 205 -37 14 -41 18 -26 26 26 15 62 57 84 99 55 103 26 280
-59 366 -63 63 -176 91 -283 72z m82 -172 c39 -27 70 -82 77 -137 13 -99 -31
-169 -124 -196 -31 -9 -59 -13 -63 -8 -5 6 -84 281 -93 326 -3 14 68 35 124
36 32 1 56 -6 79 -21z"/>
<path d="M2215 7281 c-93 -38 -237 -96 -319 -130 -82 -33 -151 -61 -153 -61
-9 0 2 -37 54 -166 32 -81 63 -144 70 -144 10 0 13 21 13 80 0 53 5 91 15 111
16 31 76 74 119 85 29 7 16 35 157 -321 55 -137 118 -292 139 -343 49 -115 51
-149 9 -197 -58 -66 -29 -65 164 4 95 34 179 66 186 71 19 11 7 25 -42 49 -53
26 -70 53 -142 226 -142 343 -227 542 -241 563 -14 22 -13 23 19 37 82 34 122
26 195 -39 67 -61 68 -53 5 117 -33 86 -53 127 -63 127 -8 0 -91 -31 -185 -69z"/>
<path d="M7955 7250 c-3 -5 2 -24 11 -41 34 -67 27 -92 -131 -448 -82 -183
-158 -347 -170 -365 -11 -17 -41 -41 -65 -52 -25 -12 -45 -27 -45 -34 0 -7 68
-43 150 -80 83 -37 213 -97 289 -133 76 -37 143 -67 148 -67 5 0 38 62 74 138
35 75 69 145 74 154 13 23 13 25 -5 32 -9 3 -36 -9 -64 -28 -82 -58 -131 -79
-170 -73 -50 7 -181 59 -181 72 0 11 101 237 228 513 81 175 107 214 164 243
58 30 67 24 -269 165 -20 9 -34 10 -38 4z"/>
<path d="M3184 6067 c-20 -18 -30 -39 -38 -88 l-12 -64 -298 -5 -298 -5 -19
-24 c-26 -31 -24 -57 6 -86 l24 -25 275 0 c169 0 277 -4 281 -10 3 -5 1 -19
-5 -30 -11 -20 -18 -20 -307 -18 -279 2 -296 1 -309 -17 -18 -24 -18 -66 0
-91 14 -18 31 -19 296 -22 l283 -3 -6 -37 c-3 -20 -33 -198 -66 -395 -34 -197
-61 -360 -61 -362 0 -2 -124 -5 -276 -7 l-276 -3 -19 -24 c-25 -31 -24 -65 3
-91 21 -19 34 -20 279 -20 142 0 260 -4 263 -9 3 -4 29 -6 57 -3 37 3 54 1 60
-9 7 -11 9 -10 9 4 0 18 7 18 98 12 53 -4 99 -9 101 -11 2 -2 1 -10 -3 -19 -4
-12 -20 -16 -58 -16 -29 0 -71 -1 -93 -1 -22 -1 -73 1 -113 4 -40 2 -75 1 -78
-4 -3 -4 -126 -8 -273 -8 -255 0 -268 -1 -289 -20 -27 -26 -28 -60 -3 -91 19
-24 19 -24 285 -27 146 -2 266 -6 266 -10 0 -4 -9 -69 -20 -145 -22 -146 -20
-166 22 -188 33 -18 171 -24 222 -9 71 20 82 38 105 180 12 69 24 135 26 148
l5 22 426 0 427 0 -7 -47 c-3 -27 -9 -92 -12 -145 -8 -113 2 -139 62 -158 51
-17 207 -7 241 15 33 22 53 73 53 133 0 27 3 83 6 125 l7 77 418 0 418 0 5
-32 c3 -18 10 -79 15 -136 15 -157 39 -182 184 -189 118 -6 173 10 205 57 21
30 23 43 18 95 -3 33 -9 93 -12 133 l-7 72 502 0 c290 0 501 -4 501 -9 0 -5 9
-61 20 -125 35 -206 49 -220 227 -221 122 0 150 10 183 68 14 26 12 53 -17
254 l-5 32 382 3 382 3 19 24 c24 30 24 52 -2 85 l-20 26 -394 0 -393 0 -11
30 -10 30 394 0 394 0 19 25 c23 29 19 66 -10 92 -19 17 -50 18 -412 21 l-391
3 -64 372 c-34 205 -65 384 -68 400 l-5 27 371 0 c404 0 424 2 437 55 7 30
-18 75 -44 76 -9 0 -186 0 -393 -1 -335 -1 -378 1 -393 15 -9 9 -16 11 -16 5
0 -16 -102 -9 -108 8 -3 8 12 12 52 12 31 0 56 5 56 10 0 6 125 10 355 10 243
0 362 4 379 11 51 23 51 100 1 119 -16 6 -176 10 -391 10 -283 0 -365 3 -368
13 -2 6 -8 39 -15 72 -17 94 -21 96 -225 93 l-171 -3 0 -45 c0 -25 4 -64 9
-87 l8 -43 -450 0 -449 0 -7 71 c-11 107 -15 109 -189 109 -137 0 -144 -1
-165 -23 -18 -19 -22 -35 -22 -90 l0 -67 -347 2 -348 3 -5 71 c-7 101 -12 104
-135 104 -127 0 -135 -7 -143 -110 l-5 -70 -369 0 -370 0 7 69 c6 62 5 71 -14
90 -19 19 -33 21 -120 21 -90 0 -103 -2 -127 -23z m134 -129 c3 -27 1 -28 -37
-28 -45 0 -48 5 -25 38 22 32 58 26 62 -10z m1031 10 c11 -30 6 -38 -30 -38
-21 0 -29 5 -29 18 0 41 45 56 59 20z m1032 12 c10 -6 19 -20 19 -30 0 -18 -7
-20 -55 -20 -46 0 -55 3 -55 18 0 38 48 55 91 32z m1306 -16 c22 -30 15 -34
-47 -34 -65 0 -85 15 -59 46 17 21 88 13 106 -12z m-3392 -184 c3 -6 3 -19 0
-31 -6 -18 -13 -19 -73 -15 -37 3 -77 5 -90 5 -19 1 -21 4 -12 20 7 14 23 21
53 24 86 7 116 7 122 -3z m867 -2 c3 -9 23 -9 87 1 87 14 106 9 99 -25 -3 -17
-12 -19 -83 -16 -44 2 -81 8 -83 13 -2 5 -10 2 -19 -6 -13 -13 -67 -15 -378
-15 -199 1 -366 4 -369 7 -4 4 -26 6 -50 4 -32 -2 -45 2 -49 13 -5 13 3 16 48
16 29 0 57 5 60 10 10 16 732 14 737 -2z m1008 4 c0 -5 29 -9 65 -9 36 -1 65
3 65 8 0 5 25 9 55 9 33 0 55 -4 55 -11 0 -7 18 -9 58 -4 31 4 267 9 525 11
396 4 468 2 473 -10 4 -10 14 -12 42 -5 20 4 47 6 60 2 32 -8 28 -33 -5 -34
-16 0 -38 -2 -50 -3 -13 -2 -23 2 -23 7 0 5 -7 4 -15 -3 -21 -18 -1036 -11
-1043 8 -5 16 -22 15 -22 -2 0 -17 -102 -14 -108 4 -3 8 -8 8 -18 -1 -9 -7
-32 -10 -59 -7 -25 3 -48 2 -51 -3 -3 -5 -163 -9 -355 -9 -305 0 -350 2 -355
15 -6 14 -8 14 -18 1 -8 -11 -20 -13 -44 -8 -48 10 -44 27 8 30 25 2 49 7 55
13 11 11 705 12 705 1z m1560 -7 c23 -28 4 -45 -49 -45 -65 0 -81 7 -81 36 0
23 3 24 59 24 40 0 63 -5 71 -15z m-3484 -293 c-29 -189 -45 -295 -60 -392 -9
-52 -21 -135 -27 -185 -12 -90 -24 -115 -58 -115 -38 1 -39 12 -20 125 10 61
26 153 34 205 8 52 28 178 45 280 16 102 30 188 30 192 0 10 64 14 69 5 2 -5
-4 -57 -13 -115z m901 114 c1 -1 -6 -130 -17 -286 -10 -157 -22 -336 -25 -397
l-7 -113 -414 0 -414 0 5 23 c3 12 21 130 40 262 51 348 76 499 85 510 5 6
139 9 377 7 202 -2 369 -5 370 -6z m178 -136 c0 -80 -4 -261 -9 -402 l-8 -258
-39 0 -39 0 0 48 c0 26 4 108 9 182 5 74 15 235 22 358 l13 223 25 -3 26 -3 0
-145z m863 23 c22 -238 56 -683 51 -685 -2 -2 -184 -2 -403 0 l-399 2 7 258
c3 141 9 321 13 400 l6 142 357 0 357 0 11 -117z m232 110 c0 -5 7 -78 15
-163 8 -85 23 -254 35 -374 27 -292 31 -262 -35 -258 -43 3 -55 7 -55 20 0 10
-14 179 -30 377 -16 198 -30 370 -30 383 0 20 5 22 50 22 28 0 50 -3 50 -7z
m1075 -15 c3 -13 32 -187 65 -388 33 -201 62 -371 65 -377 3 -10 -99 -13 -490
-13 -272 0 -495 3 -495 8 0 4 -16 170 -35 370 -19 200 -35 376 -35 393 l0 29
460 0 460 0 5 -22z m283 -118 c12 -74 41 -238 63 -365 22 -126 43 -245 46
-262 l6 -33 -67 0 c-65 0 -66 0 -67 28 0 15 -28 195 -62 400 l-62 373 59 -3
60 -3 24 -135z m-2685 -808 c6 -8 105 -7 128 3 9 3 59 2 112 -2 54 -5 97 -5
97 -1 0 4 184 8 409 8 406 0 410 0 416 -21 4 -11 4 -24 0 -27 -4 -4 -187 -8
-408 -10 -355 -2 -403 0 -414 14 -7 10 -13 11 -18 5 -10 -16 -205 -15 -205 2
0 8 -3 8 -9 -2 -7 -10 -22 -12 -60 -8 -28 3 -53 2 -56 -4 -7 -10 -774 -13
-812 -3 -22 6 -31 33 -16 47 9 10 831 9 836 -1z m1417 0 c0 -5 23 -7 51 -4 65
5 86 -2 68 -24 -8 -10 -28 -14 -63 -13 -28 1 -79 -1 -113 -6 -58 -7 -63 -6
-64 11 0 11 -3 14 -6 7 -7 -18 -88 -17 -102 1 -16 20 -4 24 57 23 28 -1 52 1
52 6 0 4 27 7 60 7 33 0 60 -4 60 -8z m1140 0 c0 -5 28 -8 63 -8 49 1 62 -2
62 -14 0 -19 -66 -26 -96 -9 -18 9 -24 8 -31 -5 -8 -14 -57 -16 -481 -16 -260
0 -482 3 -494 6 -16 4 -23 14 -23 30 l0 24 500 0 c275 0 500 -4 500 -8z m264
-9 c6 -13 9 -14 15 -5 12 21 105 12 109 -10 3 -15 -7 -17 -75 -18 -43 -1 -94
-2 -113 -3 -41 -3 -60 8 -60 34 0 16 8 19 59 19 46 0 60 -4 65 -17z m-3824
-190 c0 -25 -32 -182 -41 -205 -13 -32 -36 -43 -56 -26 -16 13 -13 91 8 190
11 47 11 48 50 48 21 0 39 -3 39 -7z m1193 -90 c-6 -104 -18 -146 -44 -151 -9
-2 -24 5 -34 14 -14 15 -16 29 -10 98 10 135 11 136 55 136 l38 0 -5 -97z
m1252 15 c10 -116 5 -139 -28 -158 -27 -14 -29 -14 -47 8 -11 13 -21 46 -25
80 -3 31 -8 78 -11 105 l-5 47 55 0 54 0 7 -82z m1405 70 c0 -7 7 -51 15 -97
16 -92 14 -116 -15 -131 -15 -8 -25 -5 -44 12 -21 18 -30 43 -46 122 -11 54
-20 100 -20 102 0 2 25 4 55 4 37 0 55 -4 55 -12z"/>
<path d="M6628 3834 c-260 -62 -410 -296 -394 -611 10 -196 66 -343 172 -449
100 -100 213 -144 374 -144 166 0 275 43 368 145 169 185 199 521 70 783 -110
224 -348 335 -590 276z m180 -149 c45 -19 114 -86 147 -141 86 -146 120 -448
70 -612 -18 -58 -62 -114 -109 -139 -38 -20 -151 -22 -186 -4 -93 49 -155 137
-194 273 -79 275 -36 556 96 621 42 21 128 22 176 2z"/>
<path d="M3124 3825 c-4 -11 5 -29 26 -50 45 -46 48 -94 20 -297 -33 -246 -88
-598 -100 -640 -11 -36 -48 -83 -85 -104 -49 -29 6 -42 360 -85 275 -34 420
-16 519 64 153 126 143 393 -20 497 l-43 27 52 34 c31 21 64 53 82 83 28 45
30 57 30 140 0 102 -17 148 -79 209 -71 72 -168 98 -421 116 -333 23 -335 23
-341 6z m493 -192 c56 -29 78 -65 78 -126 0 -64 -18 -101 -68 -141 -36 -29
-46 -31 -128 -34 l-89 -4 0 32 c0 18 10 93 22 168 l21 134 63 -5 c35 -2 80
-13 101 -24z m-39 -465 c59 -28 95 -84 100 -157 8 -107 -38 -196 -115 -222
-35 -11 -227 -8 -239 4 -5 4 22 188 52 371 l7 38 76 -6 c43 -4 94 -16 119 -28z"/>
<path d="M4460 3755 c0 -9 12 -26 26 -39 24 -20 27 -29 26 -82 -1 -61 -21
-125 -202 -658 -95 -281 -118 -330 -166 -358 -61 -36 -43 -51 76 -64 262 -28
255 -30 200 33 -39 44 -39 82 -2 193 l29 85 189 0 189 0 22 -80 c33 -124 28
-177 -24 -210 -12 -9 -23 -22 -23 -30 0 -13 32 -15 214 -15 125 0 217 4 221
10 3 5 -11 24 -31 42 -20 18 -42 45 -50 59 -7 15 -47 145 -88 290 -42 145
-113 392 -160 549 l-84 285 -181 3 c-159 2 -181 1 -181 -13z m259 -497 c35
-117 65 -221 68 -230 5 -17 -6 -18 -142 -18 -113 0 -146 3 -143 13 3 6 36 110
74 229 38 120 71 218 75 218 3 0 33 -96 68 -212z"/>
<path d="M5613 3763 c-22 -8 -15 -24 31 -67 56 -52 61 -75 81 -401 28 -448 28
-458 16 -504 -23 -83 -87 -119 -150 -85 -43 23 -50 53 -22 93 12 16 21 38 21
49 0 52 -81 99 -149 86 -113 -23 -134 -206 -36 -322 51 -61 96 -77 221 -77
108 0 112 1 187 38 93 46 148 108 174 195 15 52 15 79 4 292 -30 579 -29 607
34 657 64 51 56 53 -182 52 -120 0 -224 -3 -230 -6z"/>
</g>
</svg>
